:FULLY-SPECIFIED
:FORCE-ALL-JOINTS-BE-3DOF
:DEGREES
1937
root 5.91502 13.6352 27.9099 1055.72 70.0657 332.875
lfemur -60.4814 8.22122 -3.27073
ltibia 56.2134 0 0
lfoot 1.86838 -1.86202 0
ltoes -30.6036 0 0
rfemur -5.97349 8.78434 19.4435
rtibia 68.7537 0 0
rfoot -23.725 -27.4784 0
rtoes -29.7479 0 0
lowerback 13.6955 5.23356 4.33868
upperback -0.641965 8.00189 3.1956
thorax -8.22654 3.78655 -0.649015
lowerneck -0.4016 15.4769 7.13785
upperneck 6.56714 21.1805 -7.40551
head 3.57112 10.5105 -2.35364
lclavicle 4.98453e-14 4.37326e-15 0
lhumerus 73.347 -34.5847 38.5626
lradius 63.8594 0 0
lwrist 26.1861 0 0
lhand -5.87186 31.894 0
lfingers 7.12502 0 0
lthumb 19.9555 60.8894 0
rclavicle 4.98453e-14 4.37326e-15 0
rhumerus -33.2232 33.1777 -75.468
rradius 89.3811 0 0
rwrist -23.7173 0 0
rhand -15.0445 -405.253 0
rfingers 7.12502 0 0
rthumb 11.1218 285.062 0
1938
root 5.80277 13.6413 27.9313 1055.12 70.6703 332.224
lfemur -60.3232 7.17186 -3.36366
ltibia 55.2095 0 0
lfoot 3.02466 -2.09365 0
ltoes -29.9553 0 0
rfemur -6.43242 9.81464 19.6255
rtibia 69.3534 0 0
rfoot -23.792 -27.6418 0
rtoes -30.251 0 0
lowerback 13.6601 5.23926 4.21815
upperback -0.649551 7.99159 3.2243
thorax -8.23566 3.78773 -0.548666
lowerneck -0.136704 15.4204 7.22214
upperneck 6.20519 21.1032 -7.57858
head 3.44095 10.4812 -2.45522
lclavicle -2.01518e-14 1.76918e-14 0
lhumerus 74.9473 -35.2287 36.5856
lradius 67.7778 0 0
lwrist 27.6167 0 0
lhand -4.96165 32.9822 0
lfingers 7.12502 0 0
lthumb 20.8303 61.884 0
rclavicle -2.01518e-14 1.76918e-14 0
rhumerus -31.8908 35.1416 -75.0753
rradius 89.2711 0 0
rwrist -22.3622 0 0
rhand -14.5281 -404.88 0
rfingers 7.12502 0 0
rthumb 11.6199 285.462 0
1939
root 5.6853 13.65 27.9573 1054.34 71.2774 331.412
lfemur -60.1592 6.08466 -3.45994
ltibia 54.3115 0 0
lfoot 4.26008 -2.34113 0
ltoes -29.2548 0 0
rfemur -6.81091 10.6644 19.7755
rtibia 69.838 0 0
rfoot -23.8659 -27.8219 0
rtoes -30.7801 0 0
lowerback 13.6678 5.24489 4.10145
upperback -0.604554 7.98659 3.29686
thorax -8.21812 3.79415 -0.406967
lowerneck -0.279369 15.456 7.08333
upperneck 6.18529 21.1464 -7.60244
head 3.44908 10.4959 -2.4309
lclavicle -6.18717e-14 -2.10712e-14 0
lhumerus 76.4993 -35.8096 34.9884
lradius 71.5247 0 0
lwrist 28.4468 0 0
lhand -4.13737 33.5362 0
lfingers 7.12502 0 0
lthumb 21.622 62.349 0
rclavicle -6.18717e-14 -2.10712e-14 0
rhumerus -30.4201 37.058 -74.4509
rradius 89.2336 0 0
rwrist -21.5522 0 0
rhand -14.0593 -404.621 0
rfingers 7.12502 0 0
rthumb 12.0719 285.747 0
1940
root 5.563 13.6587 27.982 1053.68 71.9672 330.707
lfemur -59.9912 4.97044 -3.55861
ltibia 53.5372 0 0
lfoot 5.54825 -2.59917 0
ltoes -28.51 0 0
rfemur -7.09658 11.3057 19.8888
rtibia 70.1971 0 0
rfoot -23.9458 -28.0167 0
rtoes -31.3298 0 0
lowerback 13.7464 5.37934 4.11913
upperback -0.705862 8.16663 3.17839
thorax -8.34771 3.87081 -0.589473
lowerneck -0.0613573 15.2836 7.36996
upperneck 6.08294 20.9206 -7.69307
head 3.40575 10.3945 -2.52945
lclavicle 5.44918e-14 3.53837e-14 0
lhumerus 78.6345 -36.687 33.0283
lradius 75.2371 0 0
lwrist 29.1563 0 0
lhand -3.80342 32.4846 0
lfingers 7.12502 0 0
lthumb 21.9427 61.2601 0
rclavicle 5.44918e-14 3.53837e-14 0
rhumerus -29.5073 38.2773 -74.1095
rradius 89.3096 0 0
rwrist -21.2765 0 0
rhand -13.4629 -404.186 0
rfingers 7.12502 0 0
rthumb 12.647 286.217 0
1941
root 5.43214 13.6735 28.014 1053.04 72.6785 329.899
lfemur -59.8207 3.84001 -3.65871
ltibia 52.9042 0 0
lfoot 6.8628 -2.8625 0
ltoes -27.7291 0 0
rfemur -7.27706 11.7109 19.9604
rtibia 70.4202 0 0
rfoot -24.0307 -28.2237 0
rtoes -31.895 0 0
lowerback 13.7064 5.37191 3.89044
upperback -0.786957 8.12622 3.21532
thorax -8.45162 3.85889 -0.419759
lowerneck 0.0875733 15.2924 7.32644
upperneck 6.00172 20.9413 -7.73968
head 3.35972 10.4085 -2.55164
lclavicle -4.26145e-14 -3.18055e-15 0
lhumerus 80.3231 -37.0941 31.2792
lradius 78.8587 0 0
lwrist 29.7337 0 0
lhand -3.48112 32.0576 0
lfingers 7.12502 0 0
lthumb 22.2522 60.7965 0
rclavicle -4.26145e-14 -3.18055e-15 0
rhumerus -28.3299 39.998 -73.6326
rradius 89.4422 0 0
rwrist -21.5191 0 0
rhand -13.0425 -404.136 0
rfingers 7.12502 0 0
rthumb 13.0522 286.292 0
1942
root 5.29839 13.6929 28.0462 1052.25 73.4429 328.994
lfemur -59.6494 2.70417 -3.7593
ltibia 52.4302 0 0
lfoot 8.17736 -3.12583 0
ltoes -26.9199 0 0
rfemur -7.33997 11.8521 19.9853
rtibia 70.4969 0 0
rfoot -24.1197 -28.4407 0
rtoes -32.4705 0 0
lowerback 13.704 5.39532 3.72839
upperback -0.822122 8.12795 3.17044
thorax -8.50376 3.86354 -0.381356
lowerneck -0.0837178 15.1109 7.23887
upperneck 5.91251 20.6615 -7.56508
head 3.31155 10.2685 -2.50523
lclavicle -6.02069e-14 -2.127e-14 0
lhumerus 82.2022 -37.4668 29.3937
lradius 82.3701 0 0
lwrist 30.0971 0 0
lhand -3.63418 31.9888 0
lfingers 7.12502 0 0
lthumb 22.1052 60.7453 0
rclavicle -6.02069e-14 -2.127e-14 0
rhumerus -27.169 41.2404 -73.187
rradius 89.5879 0 0
rwrist -22.2709 0 0
rhand -12.2401 -403.704 0
rfingers 7.12502 0 0
rthumb 13.8256 286.776 0
1943
root 5.15714 13.7159 28.0805 1051.59 74.2962 328.141
lfemur -59.4789 1.57374 -3.8594
ltibia 52.1328 0 0
lfoot 9.46553 -3.38387 0
ltoes -26.0907 0 0
rfemur -7.38558 11.7792 20.0346
rtibia 70.4575 0 0
rfoot -24.2119 -28.6656 0
rtoes -33.0512 0 0
lowerback 13.6347 5.31938 3.43456
upperback -0.837053 7.97604 3.17306
thorax -8.52356 3.80319 -0.183154
lowerneck -0.170368 15.1643 7.16025
upperneck 5.91626 20.7345 -7.61127
head 3.32882 10.2998 -2.49546
lclavicle -1.11568e-14 -1.86858e-14 0
lhumerus 83.7653 -37.5628 27.7358
lradius 85.6633 0 0
lwrist 30.2836 0 0
lhand -3.69186 31.6358 0
lfingers 7.12502 0 0
lthumb 22.0498 60.3987 0
rclavicle -1.11568e-14 -1.86858e-14 0
rhumerus -25.8158 42.6934 -72.6384
rradius 89.784 0 0
rwrist -23.3871 0 0
rhand -11.3576 -403.447 0
rfingers 7.12502 0 0
rthumb 14.676 287.092 0
1944
root 5.01203 13.743 28.1192 1050.34 75.1715 326.725
lfemur -59.3109 0.45952 -3.95807
ltibia 52.0298 0 0
lfoot 10.7009 -3.63135 0
ltoes -25.2494 0 0
rfemur -7.51721 11.569 20.1767
rtibia 70.3444 0 0
rfoot -24.3064 -28.8961 0
rtoes -33.6319 0 0
lowerback 13.6221 5.3086 3.33969
upperback -0.867763 7.94125 3.11659
thorax -8.55439 3.78772 -0.184502
lowerneck -0.186969 15.0584 7.17717
upperneck 5.82136 20.5835 -7.63511
head 3.29584 10.2253 -2.51823
lclavicle 1.71452e-15 -3.89618e-14 0
lhumerus 85.7001 -37.6814 25.8942
lradius 88.7737 0 0
lwrist 30.4575 0 0
lhand -4.17313 31.4787 0
lfingers 7.12502 0 0
lthumb 21.5877 60.2954 0
rclavicle 1.71452e-15 -3.89618e-14 0
rhumerus -24.7696 43.63 -72.1664
rradius 90.095 0 0
rwrist -24.7281 0 0
rhand -10.6793 -403.285 0
rfingers 7.12502 0 0
rthumb 15.3295 287.304 0
1945
root 4.86054 13.7752 28.1609 1048.83 76.0892 325.031
lfemur -59.1469 -0.627677 -4.05435
ltibia 52.0978 0 0
lfoot 11.8572 -3.86298 0
ltoes -24.404 0 0
rfemur -7.72702 11.2339 20.4034
rtibia 70.1648 0 0
rfoot -24.4023 -29.1299 0
rtoes -34.2074 0 0
lowerback 13.5806 5.24383 3.23591
upperback -0.864107 7.82976 3.06109
thorax -8.53361 3.73753 -0.159893
lowerneck -0.297206 15.0743 7.16482
upperneck 5.84764 20.6004 -7.63951
head 3.32174 10.2298 -2.50631
lclavicle 1.37137e-13 7.35503e-15 0
lhumerus 87.3511 -37.7126 24.2537
lradius 91.7586 0 0
lwrist 30.6252 0 0
lhand -4.87932 31.5116 0
lfingers 7.12502 0 0
lthumb 20.9094 60.4047 0
rclavicle 1.37137e-13 7.35503e-15 0
rhumerus -23.7012 44.5027 -71.7835
rradius 90.4051 0 0
rwrist -26.1465 0 0
rhand -10.3355 -403.319 0
rfingers 7.12502 0 0
rthumb 15.6605 287.295 0
